<svg width="379" height="393" viewBox="0 0 379 393" fill="none" xmlns="http://www.w3.org/2000/svg">
<path d="M173.003 2.40505C156.131 5.24843 131.496 12.5369 126.469 16.0976C122.586 18.7676 123.714 21.4572 142.484 57.7795C162.385 96.3438 162.385 96.3438 169.224 95.2516C197.725 89.992 209.348 89.1421 217.998 91.1896C225.737 93.2335 227.333 93.0159 228.484 89.8877C229.176 87.8765 235.858 68.659 243.234 46.7589L256.601 7.42873L246.131 4.70292C232.019 1.06792 188.506 -0.219887 173.003 2.40505Z" fill="black" fill-opacity="0.03"/>
<path d="M274.337 16.6718C269.042 30.7483 247.828 95.7806 247.821 97.5707C247.817 98.6895 253.495 103.187 260.315 107.241C267.135 111.295 278.035 120.512 284.615 127.698L296.411 140.945L337.273 120.966L378.133 101.209L374.283 95.1529C365.677 81.9176 352.07 65.5301 340.492 54.7445C319.606 35.1961 276.64 10.4154 274.337 16.6718Z" fill="black" fill-opacity="0.03"/>
<path d="M90.6264 34.5304C65.9563 50.7692 41.9324 76.6323 27.0211 102.755C12.5673 128.431 9.61929 124.839 57.1778 140.464C80.1609 147.937 99.9595 154.056 101.099 154.06C102.466 154.065 104.527 151.388 106.135 147.814C110.96 137.54 124.922 121.259 135.204 113.692L145.029 106.569L124.678 66.6606C113.6 44.4652 104.1 26.5273 103.645 26.5255C103.189 26.5238 97.2512 30.0809 90.6264 34.5304Z" fill="black" fill-opacity="0.03"/>
<path d="M174.391 114.291C171.651 115.623 163.595 136.626 150.687 175.063C139.853 207.242 131.086 235.402 131.077 237.64C131.057 242.786 139.002 250.425 144.698 250.447C151.989 250.475 156.574 243.109 165.33 218.082L173.394 194.842L193.757 231.842C215.474 271.979 221.601 278.268 232.556 273.388C243.74 268.509 242.169 262.238 221.353 224.788C210.491 205.503 201.895 189.582 202.353 189.136C202.809 188.914 212.394 184.924 223.576 180.268C252.787 168.299 265.113 162.529 269.227 159.188C274.484 154.957 273.378 146.45 267.015 142.174C260.197 137.672 254.04 138.991 226.428 150.072C214.79 154.725 200.185 160.71 193.568 163.146L181.93 167.576L188.613 148.358C196.677 125.118 196.925 119.973 190.335 115.472C184.427 111.421 179.872 110.956 174.391 114.291Z" fill="black" fill-opacity="0.03"/>
<path d="M7.46789 150.788C0.774509 172.914 -0.261992 205.132 4.6488 231.331C8.44299 251.708 17.0036 276.803 19.9655 276.814C21.5604 276.82 96.436 239.967 98.7222 237.962C99.1796 237.516 97.8439 229.455 95.8307 219.826C93.8184 209.972 92.5069 195.647 92.993 187.817L93.7322 173.499L58.0074 161.501C11.8151 146.106 9.08276 145.647 7.46789 150.788Z" fill="black" fill-opacity="0.03"/>
<path d="M68.9622 274.096C47.7314 284.754 30.6052 294.533 30.5991 296.099C30.5818 300.574 50.9874 326.386 65.5161 340.092C80.4987 354.247 116.864 377.436 125.746 378.365C130.984 379.057 131.903 377.047 144.578 339.952C158.867 298.164 160.026 293.021 155.013 293.002C149.545 292.981 125.013 273.642 118.216 263.994C114.589 259.057 110.732 254.791 109.365 255.009C108.225 255.005 89.9643 263.66 68.9622 274.096Z" fill="black" fill-opacity="0.03"/>
<path d="M231.546 298.893C216.491 303.31 196.663 304.799 186.419 302.522L177.085 300.472L163.486 340.92C155.881 363.043 149.653 382.486 149.193 383.827C147.807 388.52 171.716 392.417 202.247 392.312C232.095 392.204 253.527 388.483 274.977 379.84L283.421 376.293L262.614 336.606C251.307 314.633 241.808 296.472 241.58 296.471C241.581 296.247 237.02 297.348 231.546 298.893Z" fill="black" fill-opacity="0.03"/>
</svg>
