<svg width="16" height="14" viewBox="0 0 16 14" fill="none" xmlns="http://www.w3.org/2000/svg">
<path fill-rule="evenodd" clip-rule="evenodd" d="M14.3213 1.35266C14.6658 1.35266 14.9025 1.63473 14.9025 1.92754V2.50242H2.92625C1.99927 2.50242 1.16786 3.16351 0.945791 4.13908L0 8.29411V0.574879C0 0.282068 0.236763 0 0.581267 0H3.55864L4.46415 0.936016C4.725 1.20565 5.07368 1.35266 5.43228 1.35266H14.3213ZM14.4509 13.5205C14.4067 13.7792 14.1788 14 13.8777 14H0.19828L2.35913 4.507C2.41523 4.26054 2.63873 4.05797 2.92625 4.05797H15.6298C15.8886 4.05797 16.0273 4.28641 15.9955 4.47258L14.4509 13.5205Z" fill="#721C82"/>
</svg>
