<svg width="110" height="140" viewBox="0 0 110 140" fill="none" xmlns="http://www.w3.org/2000/svg">
<path d="M50.1017 0.257244C32.609 2.15433 18.3944 12.7278 12.5834 28.2114C10.6166 33.4842 10.3782 35.2975 10.2292 46.5406L10.11 56.7235L8.11335 57.6162C4.26913 59.3459 1.43812 62.8611 0.484518 67.0458C-0.141285 69.8915 -0.171085 126.051 0.454718 128.869C1.37852 132.858 4.47773 136.708 8.14315 138.41C11.6596 140.028 10.1994 140 55.0187 140C99.8381 140 98.3779 140.028 101.894 138.41C104.159 137.35 107.02 134.699 108.182 132.551C110.03 129.092 110 129.761 110 97.9293C110 66.2368 110.03 66.8227 108.242 63.4191C107.05 61.1593 104.398 58.7321 101.924 57.6162L99.9573 56.7235L99.8083 46.4011C99.6593 37.1946 99.5699 35.7997 99.0037 33.3726C95.5469 18.6701 84.7593 7.20394 69.889 2.37753C63.4224 0.285154 56.6577 -0.440214 50.1017 0.257244ZM61.1874 9.85427C72.72 11.7514 82.8819 19.3397 87.2029 29.2715C89.4677 34.5164 90.0339 38.1711 90.0339 48.4098V56.026H20.0036V48.5213C20.0036 40.0961 20.4208 35.9671 21.6724 32.3124C25.606 20.6509 35.9467 12.0304 48.6117 9.88218C51.7109 9.35211 58.0286 9.3521 61.1874 9.85427ZM97.1859 65.8462C97.9011 66.2089 98.7653 66.8506 99.0931 67.269C99.7189 68.0502 99.7189 68.2176 99.7189 97.9572V127.864L99.0633 128.729C97.6031 130.654 100.762 130.515 55.0187 130.515C9.27555 130.515 12.4344 130.654 10.9742 128.729L10.3186 127.864V97.9572C10.3186 68.2176 10.3186 68.0502 10.9444 67.269C11.2722 66.8506 12.1364 66.2089 12.8516 65.8462L14.1628 65.2324H95.8747L97.1859 65.8462Z" fill="url(#paint0_linear_324_6)"/>
<path d="M51.3864 75.3032C49.2706 76.0564 47.0356 78.0093 46.0224 79.9622C45.337 81.3013 45.2178 81.9151 45.188 83.9237C45.188 85.9603 45.3072 86.5183 46.0224 87.8574C46.7674 89.3081 48.6448 91.2331 50.3136 92.2932L50.9692 92.7117L49.2706 102.281C48.317 107.554 47.6018 111.878 47.6912 111.934C47.7806 111.962 51.148 111.989 55.171 111.962C62.2337 111.934 62.4721 111.906 62.3827 111.404C62.3529 111.097 61.5781 106.772 60.6841 101.779L59.045 92.7117L59.6708 92.2932C61.5781 91.0378 63.3065 89.2523 64.0217 87.8574C64.7369 86.5183 64.8561 85.9603 64.8561 83.9237C64.8263 80.9386 63.9323 78.9857 61.6973 77.1166C58.9258 74.7731 54.8432 74.0756 51.3864 75.3032Z" fill="url(#paint1_linear_324_6)"/>
<defs>
<linearGradient id="paint0_linear_324_6" x1="0" y1="0" x2="-13.8974" y2="126.375" gradientUnits="userSpaceOnUse">
<stop stop-color="#651980"/>
<stop offset="1" stop-color="#D00F84"/>
</linearGradient>
<linearGradient id="paint1_linear_324_6" x1="0" y1="0" x2="-13.8974" y2="126.375" gradientUnits="userSpaceOnUse">
<stop stop-color="#651980"/>
<stop offset="1" stop-color="#D00F84"/>
</linearGradient>
</defs>
</svg>
