<svg width="24" height="22" viewBox="0 0 24 22" fill="none" xmlns="http://www.w3.org/2000/svg">
<path d="M4 9.84178C4.57314 7.99717 6.76115 4.79236 8.28392 3.66837C9.80668 2.54439 11.6387 1.96 13.5076 2.00213C15.3764 2.04425 17.1822 2.71064 18.6564 3.90219C20.1306 5.09373 21.1945 6.74676 21.6898 8.61545C22.185 10.4841 22.0852 12.4687 21.4053 14.2738C20.7253 16.079 19.5015 17.6084 17.9158 18.6346C16.3301 19.6608 14.4672 20.129 12.6043 19.9694C10.7413 19.8099 8.9778 19.0312 7.576 17.7492M4 9.84178L11.5 8.31818M4 9.84178L2 2.73111" stroke="white" stroke-width="3"/>
</svg>
