<svg width="18" height="20" viewBox="0 0 18 20" fill="none" xmlns="http://www.w3.org/2000/svg">
<path fill-rule="evenodd" clip-rule="evenodd" d="M2 20H16C17.1046 20 18 19.1046 18 18V3C18 1.89543 17.1046 1 16 1H13C13 0.447715 12.5523 0 12 0H6C5.44772 0 5 0.447715 5 1H2C0.895431 1 0 1.89543 0 3V18C0 19.1046 0.895431 20 2 20ZM13.7071 6.70711C14.0976 6.31658 14.0976 5.68342 13.7071 5.29289C13.3166 4.90237 12.6834 4.90237 12.2929 5.29289L7.90616 9.67962L6.6 8.7C6.15817 8.36863 5.53137 8.45817 5.2 8.9C4.86863 9.34183 4.95817 9.96863 5.4 10.3L7.4 11.8C7.79812 12.0986 8.35522 12.059 8.70711 11.7071L13.7071 6.70711ZM5 13C4.44772 13 4 13.4477 4 14C4 14.5523 4.44772 15 5 15H13C13.5523 15 14 14.5523 14 14C14 13.4477 13.5523 13 13 13H5Z" fill="url(#paint0_linear_578_1259)" fill-opacity="0.8"/>
<defs>
<linearGradient id="paint0_linear_578_1259" x1="0.899835" y1="1" x2="17.0104" y2="1.91696" gradientUnits="userSpaceOnUse">
<stop stop-color="#0160EB"/>
<stop offset="1" stop-color="#0091FA"/>
</linearGradient>
</defs>
</svg>
