<svg width="18" height="20" viewBox="0 0 18 20" fill="none" xmlns="http://www.w3.org/2000/svg">
<path fill-rule="evenodd" clip-rule="evenodd" d="M0 18C0 19.1046 0.895431 20 2 20H16C17.1046 20 18 19.1046 18 18V3C18 1.89543 17.1046 1 16 1H14C14 0.447715 13.5523 0 13 0H9H5C4.44772 0 4 0.447715 4 1H2C0.895431 1 0 1.89543 0 3V18ZM5.5 4.5C4.67157 4.5 4 5.17157 4 6C4 6.82843 4.67157 7.5 5.5 7.5C6.32843 7.5 7 6.82843 7 6C7 5.17157 6.32843 4.5 5.5 4.5ZM9 5C8.44772 5 8 5.44772 8 6C8 6.55228 8.44772 7 9 7H13.5C14.0523 7 14.5 6.55228 14.5 6C14.5 5.44772 14.0523 5 13.5 5H9ZM5.5 9.5C4.67157 9.5 4 10.1716 4 11C4 11.8284 4.67157 12.5 5.5 12.5C6.32843 12.5 7 11.8284 7 11C7 10.1716 6.32843 9.5 5.5 9.5ZM9 10C8.44772 10 8 10.4477 8 11C8 11.5523 8.44772 12 9 12H13.5C14.0523 12 14.5 11.5523 14.5 11C14.5 10.4477 14.0523 10 13.5 10H9ZM5.5 14C4.67157 14 4 14.6716 4 15.5C4 16.3284 4.67157 17 5.5 17C6.32843 17 7 16.3284 7 15.5C7 14.6716 6.32843 14 5.5 14ZM9 14.5C8.44772 14.5 8 14.9477 8 15.5C8 16.0523 8.44772 16.5 9 16.5H13.5C14.0523 16.5 14.5 16.0523 14.5 15.5C14.5 14.9477 14.0523 14.5 13.5 14.5H9Z" fill="url(#paint0_linear_578_1252)" fill-opacity="0.8"/>
<defs>
<linearGradient id="paint0_linear_578_1252" x1="3.31447e-09" y1="4.16338e-09" x2="17.9003" y2="1.01881" gradientUnits="userSpaceOnUse">
<stop stop-color="#0160EB"/>
<stop offset="1" stop-color="#0091FA"/>
</linearGradient>
</defs>
</svg>
