<svg width="18" height="20" viewBox="0 0 18 20" fill="none" xmlns="http://www.w3.org/2000/svg">
<path fill-rule="evenodd" clip-rule="evenodd" d="M3 0C1.34315 0 0 1.34315 0 3V17C0 18.6569 1.34315 20 3 20H15C16.6569 20 18 18.6569 18 17V7.24264C18 6.44699 17.6839 5.68393 17.1213 5.12132L12.8787 0.87868C12.3161 0.316071 11.553 0 10.7574 0H3ZM4 7C4 6.44772 4.44772 6 5 6H9C9.55228 6 10 6.44772 10 7C10 7.55228 9.55228 8 9 8H5C4.44772 8 4 7.55228 4 7ZM4 11C4 10.4477 4.44772 10 5 10H13C13.5523 10 14 10.4477 14 11C14 11.5523 13.5523 12 13 12H5C4.44772 12 4 11.5523 4 11ZM5 14C4.44772 14 4 14.4477 4 15C4 15.5523 4.44772 16 5 16H13C13.5523 16 14 15.5523 14 15C14 14.4477 13.5523 14 13 14H5Z" fill="url(#paint0_linear_578_1233)" fill-opacity="0.8"/>
<defs>
<linearGradient id="paint0_linear_578_1233" x1="3.31372e-09" y1="4.16244e-09" x2="17.9003" y2="1.01881" gradientUnits="userSpaceOnUse">
<stop stop-color="#0160EB"/>
<stop offset="1" stop-color="#0091FA"/>
</linearGradient>
</defs>
</svg>
