<svg width="20" height="20" viewBox="0 0 20 20" fill="none" xmlns="http://www.w3.org/2000/svg">
<path d="M9.8844 0.00209879C11.7919 -0.064596 14.6243 1.46045 14.8555 4.26497C15.1198 7.47084 12.7168 11.1641 9.8844 10.9397C6.82081 10.6971 4.85549 6.84513 5.26012 4.26497C5.66474 1.68481 7.97688 0.0687941 9.8844 0.00209879Z" fill="url(#paint0_linear_578_1341)" fill-opacity="0.8"/>
<path d="M6 11.5C3.98792 12.2638 0 13.9544 0 16.8717C0 21.0428 20 21.0428 20 16.8717C20 13.5468 16.4879 12.4386 14 11.5C12.5 13.5603 7.5 13.5603 6 11.5Z" fill="url(#paint1_linear_578_1341)" fill-opacity="0.8"/>
<defs>
<linearGradient id="paint0_linear_578_1341" x1="3.68192e-09" y1="4.16244e-09" x2="19.8741" y2="1.25683" gradientUnits="userSpaceOnUse">
<stop stop-color="#0160EB"/>
<stop offset="1" stop-color="#0091FA"/>
</linearGradient>
<linearGradient id="paint1_linear_578_1341" x1="3.68192e-09" y1="4.16244e-09" x2="19.8741" y2="1.25683" gradientUnits="userSpaceOnUse">
<stop stop-color="#0160EB"/>
<stop offset="1" stop-color="#0091FA"/>
</linearGradient>
</defs>
</svg>
