<svg width="20" height="20" viewBox="0 0 20 20" fill="none" xmlns="http://www.w3.org/2000/svg">
<path d="M1 19H19M7 6.61803V10.382C7 11.1253 7.78231 11.6088 8.44721 11.2764L12.2111 9.39443C12.9482 9.0259 12.9482 7.9741 12.2111 7.60557L8.44721 5.72361C7.78231 5.39116 7 5.87465 7 6.61803ZM3.00367 16H17.0037C18.1082 16 19.0037 15.1046 19.0037 14V3C19.0037 1.89543 18.1082 1 17.0037 1H3.00367C1.8991 1 1.00367 1.89543 1.00367 3V14C1.00367 15.1046 1.8991 16 3.00367 16Z" stroke="black" stroke-opacity="0.8" stroke-width="2" stroke-linecap="round" stroke-linejoin="round"/>
</svg>
