<svg width="20" height="18" viewBox="0 0 20 18" fill="none" xmlns="http://www.w3.org/2000/svg">
<path fill-rule="evenodd" clip-rule="evenodd" d="M1.1323 3.96893L8.84217 0.210819C9.41884 -0.0702729 10.0976 -0.0702732 10.6743 0.210819L18.3841 3.96893C19.6606 4.59114 19.8578 6.18873 18.9758 7.11235V8.83671C19.5726 9.0423 20.0002 9.59706 20 10.2492C19.9997 11.076 19.3119 11.7457 18.4637 11.7457C17.6156 11.7457 16.9278 11.076 16.9275 10.2492C16.9272 9.59706 17.3549 9.0423 17.9516 8.83671V7.75193L10.6743 11.2992C10.0976 11.5803 9.41884 11.5803 8.84217 11.2992L1.1323 7.54111C-0.377432 6.8052 -0.377434 4.70484 1.1323 3.96893ZM3.61316 14.6233V12.3628C3.61316 11.6206 4.41439 11.1378 5.09536 11.4698L8.84217 13.2961C9.41884 13.5772 10.0976 13.5772 10.6743 13.2961L14.4211 11.4698C15.1021 11.1378 15.9033 11.6206 15.9033 12.3628V14.6233C15.9033 15.0014 15.6841 15.3472 15.3371 15.5163L10.6743 17.7892C10.0976 18.0703 9.41884 18.0703 8.84217 17.7892L4.17931 15.5163C3.83234 15.3472 3.61316 15.0014 3.61316 14.6233Z" fill="url(#paint0_linear_578_1249)" fill-opacity="0.8"/>
<defs>
<linearGradient id="paint0_linear_578_1249" x1="3.68192e-09" y1="3.74619e-09" x2="19.8556" y2="1.39518" gradientUnits="userSpaceOnUse">
<stop stop-color="#0160EB"/>
<stop offset="1" stop-color="#0091FA"/>
</linearGradient>
</defs>
</svg>
