<svg width="22" height="20" viewBox="0 0 22 20" fill="none" xmlns="http://www.w3.org/2000/svg">
<path fill-rule="evenodd" clip-rule="evenodd" d="M2.1323 4.96893L9.84217 1.21082C10.4188 0.929727 11.0976 0.929727 11.6743 1.21082L19.3841 4.96893C20.6606 5.59114 20.8578 7.18873 19.9758 8.11235V9.83671C20.5726 10.0423 21.0002 10.5971 21 11.2492C20.9997 12.076 20.3119 12.7457 19.4637 12.7457C18.6156 12.7457 17.9278 12.076 17.9275 11.2492C17.9272 10.5971 18.3549 10.0423 18.9516 9.83671V8.75193L11.6743 12.2992C11.0976 12.5803 10.4188 12.5803 9.84217 12.2992L2.1323 8.54111C0.622566 7.8052 0.622565 5.70484 2.1323 4.96893ZM4.61316 15.6233V12.3628C4.61316 11.6206 5.41439 11.1378 6.09536 11.4698L9.84217 13.2961C10.4188 13.5772 11.0976 13.5772 11.6743 13.2961L15.4211 11.4698C16.1021 11.1378 16.9033 11.6206 16.9033 12.3628V15.6233C16.9033 16.0014 16.6841 16.3472 16.3371 16.5163L11.6743 18.7892C11.0976 19.0703 10.4188 19.0703 9.84217 18.7892L5.17931 16.5163C4.83234 16.3472 4.61316 16.0014 4.61316 15.6233Z" stroke="black" stroke-opacity="0.8" stroke-width="2"/>
</svg>
