<svg width="34" height="34" viewBox="0 0 34 34" fill="none" xmlns="http://www.w3.org/2000/svg">
<mask id="path-1-inside-1_599_1648" fill="white">
<path fill-rule="evenodd" clip-rule="evenodd" d="M10 0C4.47715 0 0 4.47715 0 10V24C0 29.5228 4.47715 34 10 34H24C29.5228 34 34 29.5228 34 24V10C34 4.47715 29.5228 0 24 0H10ZM16.8844 7.00199C18.7919 6.9386 21.6243 8.38808 21.8555 11.0536C22.1198 14.1006 19.7168 17.6109 16.8844 17.3976C13.8208 17.167 11.8555 13.5059 12.2601 11.0536C12.6647 8.60132 14.9769 7.06538 16.8844 7.00199ZM11.3139 17.7065C9.30177 18.4324 7 19.2629 7 22.0357C7 25.7642 27 26.1107 27 22.3022C27 19.142 24.9304 18.4 22.4425 17.5079C21.9321 17.3249 21.4042 17.1356 20.8728 16.9178C18.5607 19.1569 15.4971 19.0503 13.185 16.9178C12.6664 17.2185 12.0073 17.4562 11.3139 17.7065Z"/>
</mask>
<path fill-rule="evenodd" clip-rule="evenodd" d="M10 0C4.47715 0 0 4.47715 0 10V24C0 29.5228 4.47715 34 10 34H24C29.5228 34 34 29.5228 34 24V10C34 4.47715 29.5228 0 24 0H10ZM16.8844 7.00199C18.7919 6.9386 21.6243 8.38808 21.8555 11.0536C22.1198 14.1006 19.7168 17.6109 16.8844 17.3976C13.8208 17.167 11.8555 13.5059 12.2601 11.0536C12.6647 8.60132 14.9769 7.06538 16.8844 7.00199ZM11.3139 17.7065C9.30177 18.4324 7 19.2629 7 22.0357C7 25.7642 27 26.1107 27 22.3022C27 19.142 24.9304 18.4 22.4425 17.5079C21.9321 17.3249 21.4042 17.1356 20.8728 16.9178C18.5607 19.1569 15.4971 19.0503 13.185 16.9178C12.6664 17.2185 12.0073 17.4562 11.3139 17.7065Z" fill="white"/>
<path d="M21.8555 11.0536L18.8667 11.3129V11.3129L21.8555 11.0536ZM16.8844 7.00199L16.7848 4.00365L16.8844 7.00199ZM16.8844 17.3976L17.1096 14.4061H17.1096L16.8844 17.3976ZM11.3139 17.7065L12.332 20.5284L12.332 20.5284L11.3139 17.7065ZM27 22.3022L30 22.3022V22.3022L27 22.3022ZM22.4425 17.5079L23.4551 14.684L23.4551 14.684L22.4425 17.5079ZM20.8728 16.9178L22.0107 14.142L20.1953 13.3979L18.7858 14.7627L20.8728 16.9178ZM13.185 16.9178L15.2189 14.7125L13.5934 13.2134L11.6804 14.3224L13.185 16.9178ZM3 10C3 6.13401 6.13401 3 10 3V-3C2.8203 -3 -3 2.8203 -3 10H3ZM3 24V10H-3V24H3ZM10 31C6.13401 31 3 27.866 3 24H-3C-3 31.1797 2.8203 37 10 37V31ZM24 31H10V37H24V31ZM31 24C31 27.866 27.866 31 24 31V37C31.1797 37 37 31.1797 37 24H31ZM31 10V24H37V10H31ZM24 3C27.866 3 31 6.13401 31 10H37C37 2.8203 31.1797 -3 24 -3V3ZM10 3H24V-3H10V3ZM24.8443 10.7944C24.6342 8.37316 23.2356 6.61594 21.7271 5.55249C20.266 4.52245 18.4475 3.9484 16.7848 4.00365L16.984 10.0003C17.2288 9.9922 17.7803 10.1112 18.27 10.4564C18.7123 10.7683 18.8455 11.0685 18.8667 11.3129L24.8443 10.7944ZM16.6592 20.3892C19.4487 20.5992 21.643 18.9697 22.9331 17.2456C24.2414 15.4973 25.0476 13.139 24.8443 10.7944L18.8667 11.3129C18.9276 12.0153 18.6645 12.9356 18.1293 13.6508C17.5759 14.3903 17.1525 14.4093 17.1096 14.4061L16.6592 20.3892ZM9.30014 10.5652C8.94927 12.6917 9.62326 14.9734 10.7663 16.7089C11.9302 18.4761 13.9293 20.1836 16.6592 20.3892L17.1096 14.4061C16.7759 14.381 16.2606 14.1427 15.7771 13.4086C15.2727 12.6428 15.1663 11.8678 15.2201 11.542L9.30014 10.5652ZM16.7848 4.00365C13.6707 4.10714 9.97225 6.49174 9.30014 10.5652L15.2201 11.542C15.2845 11.1516 15.5062 10.7779 15.8906 10.4682C16.3032 10.1359 16.7443 10.0083 16.984 10.0003L16.7848 4.00365ZM10 22.0357C10 21.774 10.05 21.681 10.0571 21.6672C10.0683 21.6454 10.1058 21.5795 10.2474 21.4691C10.4024 21.3482 10.6431 21.2046 11.0167 21.0374C11.3961 20.8675 11.8112 20.7163 12.332 20.5284L10.2957 14.8845C9.39222 15.2105 7.83058 15.7449 6.55741 16.7379C5.0811 17.8893 4 19.6285 4 22.0357H10ZM24 22.3022C24 21.2782 24.7069 20.8937 24.5309 21.0056C24.3918 21.0941 23.9811 21.2832 23.1825 21.4726C21.6331 21.8402 19.4014 22.0318 17.046 21.9957C14.6924 21.9596 12.4542 21.6999 10.8941 21.2861C10.0915 21.0732 9.66375 20.8696 9.50528 20.7656C9.28804 20.6231 10 20.9999 10 22.0357H4C4 24.0036 5.33696 25.2068 6.21347 25.782C7.14875 26.3958 8.28351 26.8012 9.35591 27.0856C11.5458 27.6664 14.3076 27.9544 16.954 27.995C19.5986 28.0355 22.3669 27.8327 24.5675 27.3106C25.6439 27.0552 26.7957 26.6757 27.7503 26.0687C28.6681 25.4852 30 24.2784 30 22.3022L24 22.3022ZM21.43 20.3319C22.0765 20.5637 22.5573 20.7379 22.9746 20.9254C23.3822 21.1086 23.605 21.2517 23.7308 21.3568C23.8326 21.4419 23.8671 21.4975 23.893 21.5563C23.9253 21.6295 24 21.841 24 22.3022L30 22.3022C30 19.9322 29.1608 18.0749 27.5776 16.7522C26.258 15.6498 24.5546 15.0782 23.4551 14.684L21.43 20.3319ZM19.735 19.6937C20.3382 19.941 20.9285 20.1521 21.43 20.3319L23.4551 14.684C22.9358 14.4978 22.4701 14.3303 22.0107 14.142L19.735 19.6937ZM11.1511 19.1231C12.7774 20.6231 14.8143 21.5353 16.9992 21.557C19.2037 21.5789 21.2902 20.6898 22.9598 19.0729L18.7858 14.7627C18.1433 15.3849 17.542 15.5621 17.0587 15.5573C16.5557 15.5523 15.9046 15.345 15.2189 14.7125L11.1511 19.1231ZM12.332 20.5284C12.9501 20.3054 13.89 19.9768 14.6896 19.5132L11.6804 14.3224C11.4428 14.4601 11.0645 14.6071 10.2957 14.8845L12.332 20.5284Z" fill="white" mask="url(#path-1-inside-1_599_1648)"/>
</svg>
