<svg width="20" height="18" viewBox="0 0 20 18" fill="none" xmlns="http://www.w3.org/2000/svg">
<path d="M0 11C0 9.89543 0.895431 9 2 9H4C5.10457 9 6 9.89543 6 11V16C6 17.1046 5.10457 18 4 18H2C0.89543 18 0 17.1046 0 16V11Z" fill="url(#paint0_linear_578_1363)" fill-opacity="0.8"/>
<path d="M7 2C7 0.89543 7.89543 0 9 0H11C12.1046 0 13 0.895431 13 2V16C13 17.1046 12.1046 18 11 18H9C7.89543 18 7 17.1046 7 16V2Z" fill="url(#paint1_linear_578_1363)" fill-opacity="0.8"/>
<path d="M14 5C14 3.89543 14.8954 3 16 3H18C19.1046 3 20 3.89543 20 5V16C20 17.1046 19.1046 18 18 18H16C14.8954 18 14 17.1046 14 16V5Z" fill="url(#paint2_linear_578_1363)" fill-opacity="0.8"/>
<defs>
<linearGradient id="paint0_linear_578_1363" x1="3.68192e-09" y1="3.74619e-09" x2="19.8556" y2="1.39518" gradientUnits="userSpaceOnUse">
<stop stop-color="#0160EB"/>
<stop offset="1" stop-color="#0091FA"/>
</linearGradient>
<linearGradient id="paint1_linear_578_1363" x1="3.68192e-09" y1="3.74619e-09" x2="19.8556" y2="1.39518" gradientUnits="userSpaceOnUse">
<stop stop-color="#0160EB"/>
<stop offset="1" stop-color="#0091FA"/>
</linearGradient>
<linearGradient id="paint2_linear_578_1363" x1="3.68192e-09" y1="3.74619e-09" x2="19.8556" y2="1.39518" gradientUnits="userSpaceOnUse">
<stop stop-color="#0160EB"/>
<stop offset="1" stop-color="#0091FA"/>
</linearGradient>
</defs>
</svg>
