<svg width="22" height="20" viewBox="0 0 22 20" fill="none" xmlns="http://www.w3.org/2000/svg">
<path d="M1 12C1 10.8954 1.89543 10 3 10H5C6.10457 10 7 10.8954 7 12V17C7 18.1046 6.10457 19 5 19H3C1.89543 19 1 18.1046 1 17V12Z" stroke="black" stroke-opacity="0.8" stroke-width="2"/>
<path d="M8 3C8 1.89543 8.89543 1 10 1H12C13.1046 1 14 1.89543 14 3V17C14 18.1046 13.1046 19 12 19H10C8.89543 19 8 18.1046 8 17V3Z" stroke="black" stroke-opacity="0.8" stroke-width="2"/>
<path d="M15 6C15 4.89543 15.8954 4 17 4H19C20.1046 4 21 4.89543 21 6V17C21 18.1046 20.1046 19 19 19H17C15.8954 19 15 18.1046 15 17V6Z" stroke="black" stroke-opacity="0.8" stroke-width="2"/>
</svg>
