<svg width="20" height="20" viewBox="0 0 20 20" fill="none" xmlns="http://www.w3.org/2000/svg">
<path fill-rule="evenodd" clip-rule="evenodd" d="M3.00367 0C1.34681 0 0.00366592 1.34315 0.00366592 3V13C0.00366592 14.6569 1.34681 16 3.00367 16H17.0037C18.6605 16 20.0037 14.6569 20.0037 13V3C20.0037 1.34315 18.6605 0 17.0037 0H3.00367ZM8.49614 11.1451L12.4806 8.86824C13.1524 8.48435 13.1524 7.51565 12.4806 7.13176L8.49614 4.85494C7.82948 4.47399 7 4.95536 7 5.72318V10.2768C7 11.0446 7.82948 11.526 8.49614 11.1451Z" fill="url(#paint0_linear_578_1258)" fill-opacity="0.8"/>
<path d="M1 18C0.447715 18 0 18.4477 0 19C0 19.5523 0.447715 20 1 20H19C19.5523 20 20 19.5523 20 19C20 18.4477 19.5523 18 19 18H1Z" fill="url(#paint1_linear_578_1258)" fill-opacity="0.8"/>
<defs>
<linearGradient id="paint0_linear_578_1258" x1="1" y1="1" x2="18.8904" y2="2.13161" gradientUnits="userSpaceOnUse">
<stop stop-color="#0160EB"/>
<stop offset="1" stop-color="#0091FA"/>
</linearGradient>
<linearGradient id="paint1_linear_578_1258" x1="1" y1="1" x2="18.8904" y2="2.13161" gradientUnits="userSpaceOnUse">
<stop stop-color="#0160EB"/>
<stop offset="1" stop-color="#0091FA"/>
</linearGradient>
</defs>
</svg>
