<svg width="26" height="22" viewBox="0 0 26 22" fill="none" xmlns="http://www.w3.org/2000/svg">
<path d="M1 21H21.081C21.954 21 22.7011 20.3942 22.8528 19.5631L24.9766 7.93006C25.1397 7.0366 24.4287 6.21739 23.4901 6.21739M1 21L4.27203 7.55819C4.46326 6.7726 5.18849 6.21739 6.02341 6.21739H23.4901M1 21V2.73913C1 1.77864 1.80553 1 2.79921 1H6.9246C7.16319 1 7.392 1.09161 7.56071 1.25469L8.83294 2.48444C9.00165 2.64752 9.23047 2.73913 9.46906 2.73913H21.6909C22.6846 2.73913 23.4901 3.51777 23.4901 4.47826V6.21739" stroke="black" stroke-opacity="0.8" stroke-width="2"/>
</svg>
