<svg width="28" height="23" viewBox="0 0 28 23" fill="none" xmlns="http://www.w3.org/2000/svg">
<path d="M1 22.5H22.7544C23.7002 22.5 24.5095 21.8336 24.6739 20.9194L26.9747 8.12306C27.1514 7.14026 26.3811 6.23913 25.3643 6.23913M1 22.5L4.5447 7.71401C4.75187 6.84986 5.53753 6.23913 6.44203 6.23913H25.3643M1 22.5V2.41304C1 1.3565 1.87266 0.5 2.94914 0.5H7.41831C7.67678 0.5 7.92467 0.600776 8.10744 0.780159L9.48569 2.13289C9.66846 2.31227 9.91634 2.41304 10.1748 2.41304H23.4151C24.4916 2.41304 25.3643 3.26954 25.3643 4.32609V6.23913" stroke="black"/>
</svg>
