<svg width="325" height="90" viewBox="0 0 325 90" fill="none" xmlns="http://www.w3.org/2000/svg">
<path d="M80.555 71.0149V82.22H83.2454V73.4016H87.4115V82.22H90.101V71.0149H80.5547H80.555ZM92.6904 85.9618H95.3806V81.0066H95.4204C96.4727 82.3412 97.888 82.5841 98.7984 82.5841C102.358 82.5841 104.422 79.6918 104.422 76.6173C104.422 72.9967 101.852 70.6505 98.7984 70.6505C97.929 70.6505 96.1487 70.9136 95.1984 72.4715H95.158V71.0149H92.6904V85.9618ZM98.5154 73.1992C100.781 73.1992 101.731 75.1001 101.731 76.5965C101.731 78.5789 100.336 80.0354 98.4141 80.0354C96.594 80.0354 95.2189 78.7611 95.2189 76.617C95.2189 74.6551 96.5536 73.1992 98.5154 73.1992ZM111.824 70.6502C108.386 70.6502 105.877 73.3609 105.877 76.6375C105.877 79.8942 108.405 82.5838 111.824 82.5838C115.242 82.5838 117.77 79.8942 117.77 76.6375C117.77 73.3609 115.262 70.6502 111.824 70.6502ZM111.824 73.1992C113.826 73.1992 115.08 74.8174 115.08 76.6375C115.08 78.4576 113.806 80.0354 111.824 80.0354C109.842 80.0354 108.567 78.4576 108.567 76.6375C108.567 74.8174 109.821 73.1992 111.824 73.1992ZM119.793 71.0146V82.2197H122.483L127.458 74.9592V82.2197H130.148V71.0146H127.458L122.483 78.2757V71.0146H119.793ZM135.124 74.3317C135.184 73.6849 135.65 73.1992 136.398 73.1992C136.762 73.1992 137.531 73.28 137.531 74.2913C137.531 74.8174 137.268 75.3834 136.357 75.3834H135.852V77.6892H136.479C136.742 77.6892 137.671 77.7296 137.671 78.8622C137.671 80.0152 136.519 80.0351 136.377 80.0351C135.285 80.0351 134.84 79.2465 134.84 78.4368H132.151C132.109 80.1564 132.919 82.5835 136.277 82.5835C138.784 82.5835 140.362 81.0666 140.362 78.9231C140.362 77.6488 139.695 76.5159 138.339 76.172C139.411 75.8082 140.159 74.8977 140.159 73.7853C140.159 72.2078 139.007 70.6499 136.337 70.6499C133.889 70.6499 132.555 72.3894 132.433 74.3314H135.124L135.124 74.3317ZM142.445 71.0146V82.2197H147.239C149.767 82.2197 151.021 80.6219 151.021 78.8827C151.021 77.6693 150.213 76.6372 148.917 76.2734C149.868 75.8685 150.616 75.019 150.616 73.9471C150.616 72.5719 149.666 71.0143 147.38 71.0143H142.445L142.445 71.0146ZM145.136 73.3204H146.895C147.744 73.3204 147.988 73.8864 147.988 74.3317C147.988 75.019 147.441 75.3427 146.895 75.3427H145.136V73.3204ZM145.136 77.6488H147.057C148.27 77.6488 148.391 78.4778 148.391 78.7813C148.391 79.226 148.149 79.9139 147.057 79.9139H145.136V77.6485V77.6488ZM158.343 70.6502C154.905 70.6502 152.396 73.3609 152.396 76.6375C152.396 79.8942 154.924 82.5838 158.343 82.5838C161.76 82.5838 164.289 79.8942 164.289 76.6375C164.289 73.3609 161.781 70.6502 158.343 70.6502ZM158.343 73.1992C160.345 73.1992 161.599 74.8174 161.599 76.6375C161.599 78.4576 160.325 80.0354 158.343 80.0354C156.361 80.0354 155.086 78.4576 155.086 76.6375C155.086 74.8174 156.34 73.1992 158.343 73.1992ZM173.309 71.0146H170.882L166.776 79.8327H165.442V85.051H168.071V82.2197H176.121V85.051H178.75V79.8327H177.416L173.31 71.0146H173.309ZM169.81 79.8327L172.096 74.6551L174.381 79.8327H169.81H169.81ZM188.68 78.5789C187.932 79.954 186.497 80.0354 186.031 80.0354C183.968 80.0354 182.673 78.4983 182.673 76.5766C182.673 74.7764 183.887 73.1992 186.031 73.1992C187.204 73.1992 188.155 73.7048 188.68 74.7363H191.715C190.966 72.3092 188.903 70.6505 186.071 70.6505C181.885 70.6505 179.984 73.9277 179.984 76.5367C179.984 79.3271 181.966 82.5838 186.173 82.5838C188.964 82.5838 190.885 80.9456 191.715 78.5789H188.68ZM192.927 71.0149V73.4016H195.618V82.22H198.307V73.4016H200.998V71.0149H192.927ZM202.717 71.0149V82.22H207.51C210.038 82.22 211.292 80.6222 211.292 78.883C211.292 77.6696 210.484 76.6375 209.188 76.2737C210.139 75.8688 210.888 75.0193 210.888 73.9473C210.888 72.5722 209.937 71.0146 207.651 71.0146H202.716L202.717 71.0149ZM205.407 73.3207H207.166C208.016 73.3207 208.259 73.8867 208.259 74.332C208.259 75.0193 207.713 75.343 207.166 75.343H205.407V73.3207ZM205.407 77.6491H207.329C208.542 77.6491 208.663 78.4781 208.663 78.7816C208.663 79.2263 208.42 79.9142 207.329 79.9142H205.407V77.6488V77.6491ZM218.614 70.6505C215.176 70.6505 212.668 73.3612 212.668 76.6378C212.668 79.8945 215.195 82.5841 218.614 82.5841C222.032 82.5841 224.561 79.8945 224.561 76.6378C224.561 73.3612 222.052 70.6505 218.614 70.6505ZM218.614 73.1994C220.617 73.1994 221.871 74.8177 221.871 76.6378C221.871 78.4579 220.596 80.0357 218.614 80.0357C216.632 80.0357 215.358 78.4579 215.358 76.6378C215.358 74.8177 216.612 73.1994 218.614 73.1994ZM231.295 85.9621H233.986V81.0069H234.025C235.078 82.3415 236.493 82.5844 237.403 82.5844C240.963 82.5844 243.026 79.6921 243.026 76.6176C243.026 72.997 240.457 70.6508 237.403 70.6508C236.534 70.6508 234.754 70.9138 233.803 72.4718H233.762V71.0152H231.295V85.9621H231.295ZM237.12 73.1994C239.386 73.1994 240.336 75.1004 240.336 76.5968C240.336 78.5792 238.941 80.0357 237.019 80.0357C235.199 80.0357 233.824 78.7614 233.824 76.6173C233.824 74.6554 235.158 73.1994 237.12 73.1994ZM256.234 77.8114C256.295 77.4065 256.295 77.0222 256.295 76.6173C256.295 73.2803 253.948 70.6505 250.53 70.6505C246.485 70.6505 244.563 74.1293 244.563 76.6981C244.563 79.267 246.464 82.5841 250.489 82.5841C251.015 82.5841 254.433 82.5437 255.93 78.984H252.896C252.228 79.7932 251.258 80.0357 250.388 80.0357C248.952 80.0357 247.799 79.1862 247.455 77.8114H256.233H256.234ZM247.415 75.4244C247.86 74.0897 249.053 73.1994 250.53 73.1994C251.905 73.1994 253.098 74.008 253.483 75.4244H247.415ZM258.397 82.2203H261.087V76.8402L265.132 82.2203H268.531L263.818 76.274L268.287 71.0152H265.092L261.088 76.1527V71.0152H258.397V82.2203H258.397ZM276.519 71.0152H274.093L269.521 82.2203H272.514L275.306 74.6557L278.097 82.2203H281.09L276.519 71.0152H276.519ZM293.448 71.0152H290.98V72.593H290.939C290.131 71.3187 288.877 70.6508 287.279 70.6508C284.185 70.6508 281.717 73.1997 281.717 76.7189C281.717 80.3389 284.347 82.5844 287.198 82.5844C287.784 82.5844 289.645 82.4836 290.939 80.7034H290.98V82.2203H293.448V71.0152ZM287.704 73.1997C289.646 73.1997 290.92 74.6557 290.92 76.5971C290.92 78.6401 289.625 80.036 287.704 80.036C285.742 80.036 284.407 78.6205 284.407 76.7189C284.407 74.6967 285.762 73.1997 287.704 73.1997ZM296.037 71.0152V82.2203H298.727V73.9884L301.72 82.2203H303.945L306.938 73.9884V82.2203H309.629V71.0152H305.725L302.832 78.984L299.941 71.0152H296.036H296.037ZM312.217 71.0152V82.2203H317.314C319.479 82.2203 321.077 80.8651 321.077 78.5792C321.077 76.6782 319.924 74.9393 317.314 74.9393H314.908V71.0152H312.217ZM314.908 77.3254H317.031C318.124 77.3254 318.386 78.0132 318.386 78.5792C318.386 79.8131 317.254 79.833 317.031 79.833H314.908V77.3251V77.3254ZM322.311 82.2203H325V71.0152H322.311V82.2203Z" fill="white"/>
<path d="M14.7822 12.1066C22.1988 5.36552 31.9008 1.09489 42.5879 0.589844V20.9932C37.5178 21.4379 32.8968 23.4464 29.2106 26.5353L14.7822 12.1069V12.1066Z" fill="#E31E24"/>
<path d="M0.0759277 43.0564C0.554022 33.0454 4.3946 23.1654 11.5941 15.251L26.0216 29.6785C22.7511 33.578 20.9035 38.2658 20.4808 43.0564H0.0759277Z" fill="#6C2992"/>
<path d="M11.5167 75.3793C4.77567 67.9627 0.505046 58.2607 0 47.5736H20.4034C20.8481 52.6437 22.8565 57.2647 25.9454 60.9509L11.517 75.3793H11.5167Z" fill="#393185"/>
<path d="M42.5278 89.7399C32.5162 89.2618 22.6368 85.4212 14.7224 78.2217L29.1499 63.7942C33.0488 67.0647 37.7372 68.9129 42.5278 69.335V89.7399Z" fill="#338AF4"/>
<path d="M74.3663 78.1622C66.9491 84.9032 57.2478 89.1739 46.5601 89.6789V69.2749C51.6301 68.8308 56.2517 66.8224 59.9379 63.7335L74.3663 78.1619V78.1622Z" fill="#009846"/>
<path d="M74.844 12.2698C67.4274 5.52875 57.7254 1.25871 47.0383 0.753662V21.157C52.1084 21.6012 56.7294 23.6096 60.4156 26.6985L74.844 12.2701V12.2698Z" fill="#FFED00"/>
<path d="M272.436 58.7504C272.436 59.3888 272.163 59.9029 271.616 60.3089C271.07 60.7152 270.428 60.9185 269.689 60.9185C268.597 60.9185 267.551 60.4114 266.556 59.4031L257.061 51.2351V57.3656C257.061 59.7365 256.049 60.9185 254.024 60.9185C252.033 60.9185 251.036 59.7292 251.036 57.3577V40.1583C251.036 37.8162 252.033 36.6412 254.024 36.6412C256.049 36.6412 257.061 37.8303 257.061 40.209V44.9639L265.736 37.576C266.701 36.713 267.664 36.2776 268.628 36.2776C269.367 36.2776 269.985 36.488 270.484 36.9092C270.982 37.3223 271.23 38.2298 271.23 38.8966C271.23 39.7016 270.749 40.514 269.785 41.326L262.206 48.2186L271.23 56.0605C272.034 56.8149 272.436 57.7131 272.436 58.7507L272.436 58.7504ZM298.328 48.8232C298.328 52.2748 297.236 55.1609 295.051 57.4816C292.769 59.9178 289.749 61.1359 285.99 61.1359C282.294 61.1359 279.275 59.9029 276.929 57.438C274.712 55.0882 273.604 52.217 273.604 48.8232C273.604 45.3717 274.696 42.4858 276.881 40.1648C279.226 37.6712 282.263 36.4235 285.99 36.4235C289.781 36.4235 292.818 37.6565 295.1 40.122C297.251 42.4425 298.328 45.343 298.328 48.8232ZM285.988 42.3077C283.973 42.3077 282.419 43.0017 281.335 44.3903C280.434 45.5773 279.988 47.0403 279.988 48.7822C279.988 50.4989 280.45 51.9636 281.381 53.1747C282.466 54.5882 284.005 55.2951 285.988 55.2951C288.004 55.2951 289.542 54.5882 290.597 53.1747C291.497 51.9888 291.943 50.5247 291.943 48.7822C291.943 47.0655 291.497 45.6145 290.597 44.4281C289.512 43.0146 287.974 42.3077 285.988 42.3077ZM324.489 57.3574C324.489 59.7286 323.477 60.9182 321.452 60.9182C319.46 60.9182 318.464 59.7289 318.464 57.3574V42.734H307.957V57.3574C307.957 59.7286 306.945 60.9182 304.921 60.9182C302.929 60.9182 301.932 59.7289 301.932 57.3574V40.071C301.932 37.7872 302.929 36.6409 304.921 36.6409H321.452C323.477 36.6409 324.489 37.7726 324.489 40.0277V57.3577L324.489 57.3574ZM56.9339 57.9741C56.9339 58.6997 56.7057 59.551 56.1274 60.0294C55.5486 60.5081 55.0397 60.8078 54.2359 60.8078C53.2726 60.8078 51.9983 60.531 50.777 59.37L37.8318 47.2395V57.5285C37.8318 59.914 36.796 61.1107 34.7231 61.1107C32.7152 61.1107 31.7109 59.9216 31.7109 57.5435V32.309C31.7109 29.9019 32.7152 28.6975 34.7231 28.6975C36.796 28.6975 37.8318 29.8799 37.8318 32.251V40.8219L49.9005 30.6712C51.1529 29.5984 52.1981 29.0614 53.0333 29.0614C53.8363 29.0614 54.5197 29.3154 55.081 29.8157C55.9279 30.5692 56.0949 31.7237 55.8251 32.597C55.5225 33.5772 54.6867 34.2665 53.9529 34.8735L43.5845 44.1594L55.613 55.339C56.5358 56.2167 56.9339 57.133 56.9339 57.9738V57.9741ZM82.7809 57.3574C82.7809 59.7286 81.7998 60.9774 79.8406 60.9182C77.7319 60.8544 77.1203 59.4866 76.9969 58.3233H76.9008C75.1654 60.2957 72.9481 60.8579 70.2494 60.8579C68.6115 60.8579 67.0849 60.5676 65.6712 59.9949C63.2294 58.9795 61.5031 57.4884 60.2495 55.3777C59.0933 53.4419 58.515 51.2084 58.515 48.6709C58.515 46.1911 59.1252 43.95 60.3456 41.9635C61.6314 39.8604 63.3577 38.3766 65.7678 37.39C67.1813 36.8172 68.6273 36.5275 70.105 36.5275C72.8048 36.5275 75.1458 37.0604 77.0098 38.9751H77.0578V38.9312C77.3927 37.489 78.3829 36.5767 79.8406 36.6409C81.7987 36.727 82.7809 37.8159 82.7809 40.158V57.3574ZM70.5848 41.6837C68.4146 41.6837 66.5984 42.4598 65.4963 44.02C64.5618 45.3242 64.0342 46.948 64.0342 48.9073C64.0342 50.7166 64.5788 52.2622 65.5467 53.5377C66.7147 55.0408 68.6033 55.7887 70.6059 55.7887C74.162 55.7887 76.9023 52.94 77.0039 48.7359C77.0854 45.3626 74.8941 41.6837 70.5848 41.6837ZM110.446 57.3574C110.446 59.7286 109.449 60.9182 107.457 60.9182C105.433 60.9182 104.421 59.7145 104.421 57.3147V42.3191H98.0132C96.6963 42.3191 96.0375 42.9138 96.0375 44.0956V54.7985C96.0375 56.5316 95.6039 57.9524 94.7365 59.0548C93.7399 60.2948 92.0683 60.9182 90.204 60.9182C88.7258 60.9182 87.7145 60.8312 87.1678 60.6572C86.0757 60.3385 85.3469 59.6714 85.3469 58.6561C85.3469 57.7277 85.9876 56.7261 86.6616 56.3781C87.1447 56.1464 87.8425 55.9088 88.9985 55.9088C89.4165 55.9088 89.7376 55.3868 89.9632 54.3421C90.0912 53.7987 90.1556 53.146 90.1556 52.3916V43.0219C90.1556 40.7387 90.7339 39.1213 91.8908 38.1859C93.0474 37.2438 94.912 36.7724 97.4817 36.7724H107.602C109.497 36.7724 110.445 37.9328 110.445 40.2456V57.358L110.446 57.3574ZM139.171 47.4739C139.171 48.4321 138.826 49.1789 138.135 49.7155C137.436 50.2513 136.545 50.5197 135.452 50.5197H120.808C120.872 52.2311 121.547 53.6162 122.841 54.6752C124.127 55.7336 125.724 56.2627 127.62 56.2627C129.202 56.2627 130.978 55.8057 132.962 54.8926C134.946 53.9788 136.031 53.5215 136.223 53.5215C137.837 53.5215 138.642 54.2612 138.642 55.7412C138.642 56.205 138.4 56.727 137.918 57.3068C136.889 58.5248 135.316 59.4825 133.194 60.1785C131.332 60.787 129.419 61.0923 127.459 61.0923C123.636 61.0923 120.519 59.8742 118.11 57.438C115.828 55.117 114.688 52.2021 114.688 48.6931C114.688 45.2993 115.852 42.4061 118.182 40.0127C120.512 37.6205 123.539 36.4235 127.267 36.4235C130.544 36.4235 133.348 37.5183 135.677 39.7084C138.007 41.8985 139.171 44.4873 139.171 47.4742L139.171 47.4739ZM133.147 46.7342C133.082 45.1101 132.528 43.7473 131.484 42.6452C130.439 41.5422 129.034 40.9915 127.267 40.9915C125.499 40.9915 124.013 41.5422 122.808 42.6452C121.603 43.7473 120.937 45.1101 120.808 46.7342H133.146H133.147ZM165.636 57.445C165.636 59.7573 164.641 60.9182 162.648 60.9182C160.624 60.9182 159.612 59.7728 159.612 57.4887V47.234L149.04 59.3958C148.139 60.4111 147.159 60.9185 146.099 60.9185C144.074 60.9185 143.062 59.7582 143.062 57.4453V40.1144C143.062 37.8016 144.074 36.6412 146.099 36.6412C148.092 36.6412 149.087 37.8016 149.087 40.129V50.6922L159.564 38.4247C160.592 37.2356 161.635 36.6409 162.697 36.6409C164.656 36.6409 165.636 37.7872 165.636 40.071V57.445ZM161.541 29.8928C161.541 31.2272 160.786 32.6966 159.147 33.5963C157.734 34.3497 156.223 34.7267 154.616 34.7267C153.074 34.7267 150.831 34.432 149.352 33.6484C147.681 32.749 146.987 31.4226 146.987 30.1175C146.987 28.9281 147.661 28.3117 149.01 28.2892C149.974 28.2734 150.52 28.5599 151.388 29.4305C152.256 30.3 153.684 30.8964 154.584 30.8964C155.549 30.8964 156.408 30.2842 157.227 29.4141C158.047 28.544 158.793 28.109 159.469 28.109C160.85 28.109 161.541 28.7037 161.541 29.8928H161.541ZM197.104 63.3111C197.104 65.1095 196.108 66.0088 194.116 66.0088C192.605 66.0088 191.608 65.1095 191.608 63.3111V60.9604H173.908V63.3111C173.908 65.1095 173.06 66.0088 171.485 66.0088C169.557 66.0088 168.594 65.1095 168.594 63.3111V59.0041C168.594 57.7567 169.387 56.9734 170.127 56.6549C170.768 56.4226 171.427 56.1903 172.102 55.9589C172.841 55.4656 173.574 54.4215 173.574 52.8261V42.7756C173.574 40.6004 174.201 39.0343 175.454 38.0772C176.611 37.2066 178.426 36.7721 180.9 36.7721H190.983C192.879 36.7721 193.827 37.9325 193.827 40.2524V56.35H194.212C196.141 56.3213 197.104 57.1043 197.104 58.6997V63.3111ZM187.802 55.1984V42.465H181.238C179.92 42.465 179.261 43.0597 179.261 44.2491V52.9131C179.261 54.2475 178.941 54.2413 178.298 55.1984H187.802ZM223.468 48.8232C223.468 52.2748 222.375 55.1609 220.19 57.4816C217.909 59.9178 214.889 61.1359 211.129 61.1359C207.434 61.1359 204.414 59.9029 202.068 57.438C199.851 55.0882 198.743 52.217 198.743 48.8232C198.743 45.3717 199.835 42.4858 202.02 40.1648C204.366 37.6712 207.402 36.4235 211.129 36.4235C214.92 36.4235 217.957 37.6565 220.239 40.122C222.391 42.4425 223.468 45.343 223.468 48.8232ZM211.128 42.3077C209.113 42.3077 207.559 43.0017 206.474 44.3903C205.574 45.5773 205.128 47.0403 205.128 48.7822C205.128 50.4989 205.589 51.9636 206.52 53.1747C207.605 54.5882 209.144 55.2951 211.128 55.2951C213.144 55.2951 214.682 54.5882 215.737 53.1747C216.636 51.9888 217.083 50.5247 217.083 48.7822C217.083 47.0655 216.636 45.6145 215.737 44.4281C214.651 43.0146 213.113 42.3077 211.128 42.3077ZM238.891 36.4669C240.658 36.4669 242.297 36.7279 243.806 37.2499C245.83 37.946 246.843 38.9467 246.843 40.2521C246.843 41.7895 246.04 43.3459 244.425 43.3459C243.718 43.3459 242.907 43.2252 242.008 42.8629C241.108 42.4999 240.087 42.1976 238.963 42.1976C236.898 42.1976 235.268 42.8593 234.078 44.4187C231.966 47.1021 232.024 50.6105 234.152 53.2878C235.309 54.7883 236.822 55.3006 239.047 55.3006C239.85 55.3006 240.955 55.0156 242.248 54.5656C243.541 54.1157 244.329 54.1341 244.618 54.1341C245.653 54.1341 247.083 55.1796 247.083 57.0888C247.083 58.6262 245.605 59.8009 242.649 60.6133C241.46 60.9326 240.159 61.092 238.746 61.092C234.89 61.092 231.837 59.8888 229.588 57.4811C227.436 55.2189 226.359 52.3178 226.359 48.7793C226.359 45.299 227.467 42.4129 229.685 40.1214C232.03 37.6847 235.099 36.4666 238.89 36.4666L238.891 36.4669Z" fill="white"/>
</svg>
