<svg width="150" height="145" viewBox="0 0 150 145" fill="none" xmlns="http://www.w3.org/2000/svg">
<path d="M0 121.121C0 91.0857 31.2139 89.3415 46.3873 79.8937C63.7283 97.0716 86.7052 97.9305 104.046 79.8937C127.457 90.2004 150 92.5884 150 123.268C150 153.948 0 151.156 0 121.121Z" fill="#D9D9D9"/>
<path d="M0 121.121C0 91.0857 31.2139 89.3415 46.3873 79.8937C63.7283 97.0716 86.7052 97.9305 104.046 79.8937C127.457 90.2004 150 92.5884 150 123.268C150 153.948 0 151.156 0 121.121Z" fill="url(#paint0_linear_4_16)"/>
<path d="M111.416 32.6542C109.682 11.1817 88.4393 -0.494573 74.133 0.0160693C59.8266 0.526711 42.4855 12.8995 39.4509 32.6542C36.4162 52.4089 51.1561 81.9007 74.133 83.7587C95.3757 85.4765 113.398 57.1995 111.416 32.6542Z" fill="#D9D9D9"/>
<path d="M111.416 32.6542C109.682 11.1817 88.4393 -0.494573 74.133 0.0160693C59.8266 0.526711 42.4855 12.8995 39.4509 32.6542C36.4162 52.4089 51.1561 81.9007 74.133 83.7587C95.3757 85.4765 113.398 57.1995 111.416 32.6542Z" fill="url(#paint1_linear_4_16)"/>
<defs>
<linearGradient id="paint0_linear_4_16" x1="0" y1="72.5" x2="150" y2="72.5" gradientUnits="userSpaceOnUse">
<stop stop-color="#5F1880"/>
<stop offset="1" stop-color="#CC1384"/>
</linearGradient>
<linearGradient id="paint1_linear_4_16" x1="0" y1="72.5" x2="150" y2="72.5" gradientUnits="userSpaceOnUse">
<stop stop-color="#5F1880"/>
<stop offset="1" stop-color="#CC1384"/>
</linearGradient>
</defs>
</svg>
